<svg xmlns="http://www.w3.org/2000/svg" width="256" height="256" viewBox="0 0 100 100"><rect width="100" height="100" rx="20" fill="#ff9e00"></rect><path fill="#fff" d="M-1.82 37.92L-1.82 37.92Q-1.82 37.27-1.15 36.60Q-0.47 35.92 0.68 35.38Q1.83 34.82 3.38 34.50Q4.93 34.17 6.68 34.17L6.68 34.17Q11.53 34.17 14.25 36.52Q16.98 38.88 16.98 42.88L16.98 42.88Q16.98 44.22 16.63 45.55Q16.28 46.88 15.48 48.25Q14.68 49.63 13.38 51.13Q12.08 52.63 10.23 54.32L10.23 54.32L2.08 61.88L16.93 61.88Q17.13 62.13 17.28 62.52Q17.43 62.92 17.43 63.47L17.43 63.47Q17.43 65.17 15.88 65.17L15.88 65.17L-1.77 65.17Q-2.77 64.47-2.77 63.17L-2.77 63.17Q-2.77 61.72-1.57 60.57L-1.57 60.57L7.43 51.92Q8.93 50.47 9.98 49.27Q11.03 48.07 11.65 47.02Q12.28 45.97 12.55 44.97Q12.83 43.97 12.83 42.92L12.83 42.92Q12.83 40.52 11.23 39.05Q9.63 37.57 6.38 37.57L6.38 37.57Q4.13 37.57 2.43 38.32Q0.73 39.07-0.42 39.92L-0.42 39.92Q-0.97 39.67-1.40 39.17Q-1.82 38.67-1.82 37.92ZM43.08 49.97L43.08 49.97Q43.08 46.63 42.45 44.27Q41.83 41.92 40.78 40.42Q39.73 38.92 38.30 38.25Q36.88 37.57 35.28 37.57L35.28 37.57Q33.68 37.57 32.28 38.30Q30.88 39.02 29.83 40.52Q28.78 42.02 28.15 44.38Q27.53 46.72 27.53 49.97L27.53 49.97Q27.53 56.02 29.55 59.22Q31.58 62.42 35.28 62.42L35.28 62.42Q39.03 62.42 41.05 59.22Q43.08 56.02 43.08 49.97ZM35.28 65.83L35.28 65.83Q32.63 65.83 30.45 64.85Q28.28 63.88 26.70 61.90Q25.13 59.92 24.28 56.95Q23.43 53.97 23.43 49.97L23.43 49.97Q23.43 45.67 24.43 42.67Q25.43 39.67 27.08 37.77Q28.73 35.88 30.85 35.02Q32.98 34.17 35.28 34.17L35.28 34.17Q37.58 34.17 39.73 35.05Q41.88 35.92 43.53 37.82Q45.18 39.72 46.18 42.72Q47.18 45.72 47.18 49.97L47.18 49.97Q47.18 53.97 46.33 56.95Q45.48 59.92 43.90 61.90Q42.33 63.88 40.13 64.85Q37.92 65.83 35.28 65.83ZM51.48 54.02L66.03 34.72Q66.47 34.63 67.05 34.55Q67.63 34.47 68.08 34.47L68.08 34.47Q69.13 34.47 69.97 34.97Q70.83 35.47 70.83 36.92L70.83 36.92L70.83 54.42L75.83 54.42Q75.97 54.67 76.13 55.10Q76.28 55.52 76.28 56.07L76.28 56.07Q76.28 57.77 74.72 57.77L74.72 57.77L70.83 57.77L70.83 65.27Q70.58 65.38 70.10 65.47Q69.63 65.58 69.08 65.58L69.08 65.58Q66.92 65.58 66.92 63.82L66.92 63.82L66.92 57.77L52.48 57.77Q51.98 57.52 51.60 56.90Q51.23 56.27 51.23 55.42L51.23 55.42Q51.23 54.97 51.30 54.65Q51.38 54.32 51.48 54.02L51.48 54.02ZM66.97 54.42L67.08 38.67L66.97 38.67L55.88 54.42L66.97 54.42ZM80.23 57.13L80.23 57.13Q80.23 55.57 80.70 54.32Q81.18 53.07 81.98 52.10Q82.78 51.13 83.83 50.45Q84.88 49.77 86.03 49.32L86.03 49.32Q83.63 48.42 82.30 46.72Q80.98 45.02 80.98 42.42L80.98 42.42Q80.98 40.52 81.73 39Q82.48 37.47 83.88 36.40Q85.28 35.32 87.23 34.75Q89.18 34.17 91.53 34.17L91.53 34.17Q96.43 34.17 99.25 36.40Q102.08 38.63 102.08 42.52L102.08 42.52Q102.08 45.17 100.58 46.85Q99.08 48.52 96.73 49.32L96.73 49.32Q97.98 49.77 99.08 50.47Q100.18 51.17 101 52.13Q101.83 53.07 102.30 54.35Q102.78 55.63 102.78 57.17L102.78 57.17Q102.78 59.22 101.95 60.82Q101.13 62.42 99.65 63.52Q98.18 64.63 96.10 65.22Q94.03 65.83 91.53 65.83L91.53 65.83Q86.38 65.83 83.30 63.55Q80.23 61.27 80.23 57.13ZM98.78 57.02L98.78 57.02Q98.78 54.32 96.70 52.67Q94.63 51.02 91.03 50.57L91.03 50.57Q87.93 51.13 86.08 52.77Q84.23 54.42 84.23 57.07L84.23 57.07Q84.23 59.63 86.15 61.05Q88.08 62.47 91.53 62.47L91.53 62.47Q94.83 62.47 96.80 61.10Q98.78 59.72 98.78 57.02ZM84.98 42.47L84.98 42.47Q84.98 43.88 85.53 44.85Q86.08 45.82 87.05 46.47Q88.03 47.13 89.33 47.50Q90.63 47.88 92.13 48.02L92.13 48.02Q95.13 47.27 96.60 45.97Q98.08 44.67 98.08 42.52L98.08 42.52Q98.08 40.13 96.33 38.82Q94.58 37.52 91.53 37.52L91.53 37.52Q88.53 37.52 86.75 38.88Q84.98 40.22 84.98 42.47Z"></path></svg>